HIERARCHY
ROOT RootJoint
{
    OFFSET   0.000000   0.000000   0.000000
    CHANNELS 6 Xposition Yposition Zposition Xrotation Yrotation Zrotation
    JOINT pelvis_lowerback
    {
        OFFSET   0.000000   0.093605   0.000000
        CHANNELS 3 Xrotation Yrotation Zrotation
        JOINT lowerback_torso
        {
            OFFSET   0.000000   0.100000   0.000000
            CHANNELS 3 Xrotation Yrotation Zrotation
            JOINT torso_head
            {
                OFFSET   0.000000   0.282350   0.000000
                CHANNELS 3 Xrotation Yrotation Zrotation
                End Site
                {
                    OFFSET   0.000000   0.192650   0.000000
                }
            }
            JOINT rTorso_Clavicle
            {
                OFFSET  -0.001000   0.157500   0.000000
                CHANNELS 3 Xrotation Yrotation Zrotation
                JOINT rShoulder
                {
                    OFFSET  -0.117647   0.000000   0.000000
                    CHANNELS 3 Xrotation Yrotation Zrotation
                    JOINT rElbow
                    {
                        OFFSET  -0.245000   0.000000   0.000000
                        CHANNELS 3 Xrotation Yrotation Zrotation
                        JOINT rWrist
                        {
                            OFFSET  -0.240000   0.000000   0.000000
                            CHANNELS 3 Xrotation Yrotation Zrotation
                            End Site
                            {
                                OFFSET  -0.116353  -0.002500   0.000000
                            }
                        }
                    }
                }
            }
            JOINT lTorso_Clavicle
            {
                OFFSET   0.001000   0.157500   0.000000
                CHANNELS 3 Xrotation Yrotation Zrotation
                JOINT lShoulder
                {
                    OFFSET   0.117647   0.000000   0.000000
                    CHANNELS 3 Xrotation Yrotation Zrotation
                    JOINT lElbow
                    {
                        OFFSET   0.245000   0.000000   0.000000
                        CHANNELS 3 Xrotation Yrotation Zrotation
                        JOINT lWrist
                        {
                            OFFSET   0.240000   0.000000   0.000000
                            CHANNELS 3 Xrotation Yrotation Zrotation
                            End Site
                            {
                                OFFSET   0.116353  -0.002500   0.000000
                            }
                        }
                    }
                }
            }
        }
    }
    JOINT rHip
    {
        OFFSET  -0.100000  -0.051395   0.000000
        CHANNELS 3 Xrotation Yrotation Zrotation
        JOINT rKnee
        {
            OFFSET   0.000000  -0.410000   0.000000
            CHANNELS 3 Xrotation Yrotation Zrotation
            JOINT rAnkle
            {
                OFFSET   0.000000  -0.390000   0.000000
                CHANNELS 3 Xrotation Yrotation Zrotation
                JOINT rToeJoint
                {
                    OFFSET   0.000000  -0.050000   0.130000
                    CHANNELS 3 Xrotation Yrotation Zrotation
                    End Site
                    {
                        OFFSET  -0.010000   0.002000   0.060000
                    }
                }
            }
        }
    }
    JOINT lHip
    {
        OFFSET   0.100000  -0.051395   0.000000
        CHANNELS 3 Xrotation Yrotation Zrotation
        JOINT lKnee
        {
            OFFSET   0.000000  -0.410000   0.000000
            CHANNELS 3 Xrotation Yrotation Zrotation
            JOINT lAnkle
            {
                OFFSET   0.000000  -0.390000   0.000000
                CHANNELS 3 Xrotation Yrotation Zrotation
                JOINT lToeJoint
                {
                    OFFSET   0.000000  -0.050000   0.130000
                    CHANNELS 3 Xrotation Yrotation Zrotation
                    End Site
                    {
                        OFFSET   0.010000   0.002000   0.060000
                    }
                }
            }
        }
    }
}
MOTION
Frames: 5
Frame Time:   0.008333
 -2.316090   0.268036   4.370434  -2.298786  -4.342817  -3.696328  19.711295   4.927192  -1.395034   7.693493   6.504664   1.121230  -1.157413   1.622459   4.260799  -7.074846   2.848556  14.357480  -4.621899   5.187507  40.887726  -0.013037  40.781567   0.018439   6.364686   5.612302  -4.434037  -2.278824   5.987293  -8.016944   6.081681   0.858129 -41.569273  -0.019310 -27.015464   0.004016   1.152812  -1.757423   6.519652 -67.099493   9.421814  -5.488610 170.002070  -0.000097   0.000035 -70.451275  -1.049982   3.783579  -6.539050   0.004570  -0.008067 -85.663038   1.138011   6.098767 160.024152   0.000838  -0.000195 -69.972800  -3.055693   0.994834  -3.934904   0.004950   0.005701
 -2.316729   0.269360   4.371739  -2.379693  -4.003426  -3.324442  19.459988   4.609611  -1.629148   7.616657   6.271391   1.082351  -1.083304   1.606683   4.140551  -6.652278   3.037655  14.288445  -4.125347   5.266216  41.114917  -0.013771  39.960915   0.019360   6.435930   5.579391  -4.485171  -2.241728   5.578766  -7.906314   5.476498   0.142692 -41.155518  -0.020202 -28.736242   0.005838   1.382744  -1.592083   6.736552 -67.929612   9.708388  -5.747865 169.721740  -0.000142  -0.000064 -70.367686  -1.323700   4.046443  -6.055682   0.002332  -0.007291 -85.104726   1.379024   5.637715 159.816605   0.000916  -0.000360 -69.970233  -3.143952   1.213307  -4.232496   0.004830   0.005121
 -2.317589   0.270884   4.372980  -2.463511  -3.651015  -2.952481  19.204975   4.273966  -1.849671   7.514307   6.017410   1.040856  -1.016287   1.594672   4.014645  -6.230899   3.208953  14.226101  -3.639035   5.330184  41.337796  -0.013677  39.179623   0.019144   6.503991   5.466130  -4.434949  -2.242978   5.163465  -7.797247   4.883492  -0.570871 -40.782034  -0.020401 -30.383933   0.006822   1.633131  -1.675157   6.933618 -68.780221   9.969577  -5.975401 169.360819  -0.000277  -0.000293 -70.300976  -1.579113   4.295569  -5.601285   0.000503  -0.006326 -84.541801   1.590287   5.204922 159.566006   0.000952  -0.000612 -69.968513  -3.211375   1.420589  -4.478141   0.004618   0.004420
 -2.318646   0.272559   4.374168  -2.556730  -3.294147  -2.589545  18.944882   3.923383  -2.050921   7.398523   5.741923   1.003343  -0.956536   1.583588   3.894440  -5.825652   3.358240  14.168506  -3.176725   5.383568  41.547651  -0.012823  38.446182   0.017881   6.567581   5.326088  -4.355811  -2.266320   4.746804  -7.698091   4.315157  -1.263920 -40.444292  -0.020050 -31.934963   0.007347   1.884388  -1.856291   7.115887 -69.606885  10.217926  -6.174947 168.992436  -0.000455  -0.000534 -70.247655  -1.817313   4.530934  -5.181141  -0.000871  -0.005315 -83.972231   1.771433   4.812287 159.284604   0.000910  -0.000926 -69.967545  -3.259857   1.618754  -4.684934   0.004353   0.003691
 -2.319869   0.274350   4.375304  -2.656933  -2.940652  -2.235726  18.678249   3.563096  -2.232908   7.271654   5.451342   0.969789  -0.903492   1.572758   3.781752  -5.439628   3.486272  14.110299  -2.740430   5.427852  41.740900  -0.011483  37.759591   0.015955   6.627510   5.178659  -4.277692  -2.301099   4.337875  -7.609497   3.776816  -1.929044 -40.139773  -0.019387 -33.389993   0.007500   2.131237  -2.079219   7.282853 -70.398514  10.454288  -6.352194 168.641173  -0.000621  -0.000756 -70.205002  -2.039588   4.753190  -4.795871  -0.001867  -0.004354 -83.401494   1.925867   4.461809 158.979070   0.000797  -0.001281 -69.967208  -3.292497   1.808108  -4.857571   0.004046   0.002997
